Coordinates
version=1
nRows=32
nColumns=12
inDegrees=yes

Units are S.I. units (second, meters, Newtons, ...)
Angles are in degrees

endheader
time	SC_y	SC_z	SC_x	AC_y	AC_z	AC_x	GH_y	GH_z	GH_yy	EL_x	PS_y
       0.0              -26.15          23.99          28.36          58.72          3.451          10.75         -35.57          84.98         -125.7          100.4          148.9
  0.002796              -26.16          23.99          28.37          58.72          3.451          10.75         -35.59          84.98         -125.6          100.4          148.9
  0.005593              -26.16          23.99          28.37          58.72          3.452          10.75         -35.61          84.98         -125.6          100.4          148.9
  0.008389              -26.16          23.99          28.38          58.71          3.452          10.75         -35.63          84.97         -125.6          100.4          148.8
   0.01119              -26.16          23.99          28.39          58.71          3.453          10.75         -35.66          84.97         -125.6          100.4          148.8
   0.01398              -26.17          23.99          28.39          58.71          3.453          10.75         -35.68          84.97         -125.6          100.4          148.8
   0.01678              -26.17          23.99           28.4          58.71          3.454          10.76         -35.71          84.97         -125.5          100.4          148.8
   0.01957              -26.17          23.99          28.41          58.71          3.454          10.76         -35.73          84.97         -125.5          100.4          148.7
   0.02237              -26.18          23.99          28.41          58.71          3.455          10.76         -35.76          84.96         -125.5          100.4          148.7
   0.02517              -26.18          23.99          28.42          58.71          3.455          10.76         -35.79          84.96         -125.4          100.4          148.7
   0.02796              -26.18          23.99          28.43           58.7          3.456          10.76         -35.83          84.96         -125.4          100.4          148.6
   0.03076              -26.19          23.99          28.44           58.7          3.457          10.76         -35.87          84.95         -125.4          100.4          148.6
   0.03356              -26.19          23.99          28.45           58.7          3.458          10.77          -35.9          84.95         -125.3          100.4          148.6
   0.03635               -26.2          23.99          28.46           58.7          3.459          10.77         -35.95          84.95         -125.3          100.4          148.5
   0.03915               -26.2          23.99          28.48          58.69          3.459          10.77         -35.99          84.94         -125.2          100.4          148.5
   0.04195              -26.21          23.99          28.49          58.69           3.46          10.77         -36.04          84.94         -125.2          100.4          148.4
   0.04474              -26.22          23.98           28.5          58.69          3.462          10.77          -36.1          84.93         -125.1          100.4          148.4
   0.04754              -26.22          23.98          28.52          58.68          3.463          10.78         -36.16          84.93         -125.1          100.4          148.3
   0.05033              -26.23          23.98          28.54          58.68          3.464          10.78         -36.22          84.92         -125.0          100.5          148.3
   0.05313              -26.24          23.98          28.56          58.68          3.466          10.78         -36.29          84.91         -124.9          100.5          148.2
   0.05593              -26.25          23.98          28.58          58.67          3.467          10.79         -36.37          84.91         -124.8          100.5          148.1
   0.05872              -26.26          23.98           28.6          58.67          3.469          10.79         -36.46           84.9         -124.8          100.5          148.0
   0.06152              -26.27          23.98          28.63          58.66          3.471           10.8         -36.55          84.89         -124.7          100.5          147.9
   0.06432              -26.28          23.98          28.65          58.66          3.473           10.8         -36.66          84.88         -124.6          100.5          147.8
   0.06711              -26.29          23.97          28.69          58.65          3.475          10.81         -36.77          84.87         -124.4          100.5          147.7
   0.06991              -26.31          23.97          28.72          58.64          3.478          10.81          -36.9          84.86         -124.3          100.5          147.6
   0.07271              -26.32          23.97          28.76          58.63          3.481          10.82         -37.05          84.85         -124.1          100.5          147.4
    0.0755              -26.34          23.97           28.8          58.62          3.484          10.83         -37.22          84.83         -124.0          100.6          147.3
    0.0783              -26.37          23.96          28.85          58.61          3.488          10.83          -37.4          84.81         -123.8          100.6          147.1
    0.0811              -26.39          23.96          28.91           58.6          3.492          10.84         -37.61           84.8         -123.6          100.6          146.9
   0.08389              -26.42          23.96          28.97          58.59          3.497          10.86         -37.85          84.77         -123.3          100.6          146.6
   0.08669              -26.45          23.95          29.05          58.57          3.503          10.87         -38.13          84.75         -123.0          100.7          146.3
